<svg width="512" height="512" viewBox="0 0 512 512" fill="none" xmlns="http://www.w3.org/2000/svg">
    <path d="M358.4 25.6001H153.6C82.9072 25.6001 25.5996 82.9076 25.5996 153.6V358.4C25.5996 429.093 82.9072 486.4 153.6 486.4H358.4C429.092 486.4 486.4 429.093 486.4 358.4V153.6C486.4 82.9076 429.092 25.6001 358.4 25.6001Z" fill="#2563EB"/>
    <path d="M383.999 140.8H127.999C120.93 140.8 115.199 146.531 115.199 153.6V185.6C115.199 192.669 120.93 198.4 127.999 198.4H383.999C391.068 198.4 396.799 192.669 396.799 185.6V153.6C396.799 146.531 391.068 140.8 383.999 140.8Z" fill="white"/>
    <path d="M275.2 140.8H236.8C229.731 140.8 224 146.531 224 153.6V384C224 391.069 229.731 396.8 236.8 396.8H275.2C282.269 396.8 288 391.069 288 384V153.6C288 146.531 282.269 140.8 275.2 140.8Z" fill="white"/>
    <path d="M396.8 409.6C418.008 409.6 435.2 392.408 435.2 371.2C435.2 349.992 418.008 332.8 396.8 332.8C375.593 332.8 358.4 349.992 358.4 371.2C358.4 392.408 375.593 409.6 396.8 409.6Z" fill="#60A5FA"/>
</svg>
